<?xml version="1.0" encoding="iso-8859-1"?>
<!-- Generator: Adobe Illustrator 19.0.0, SVG Export Plug-In . SVG Version: 6.00 Build 0)  -->
<svg version="1.1" id="Layer_1" xmlns="http://www.w3.org/2000/svg" xmlns:xlink="http://www.w3.org/1999/xlink" x="0px" y="0px"
	 viewBox="0 0 472.615 472.615" style="enable-background:new 0 0 472.615 472.615;" xml:space="preserve">
<g>
	<g>
		<path d="M236.308,0C105.798,0,0,105.798,0,236.308c0,130.509,105.798,236.308,236.308,236.308
			c130.509,0,236.308-105.799,236.308-236.308C472.615,105.798,366.816,0,236.308,0z M207.385,146.961
			c-15.974,0-28.923-12.949-28.923-28.923c0-15.973,12.949-28.923,28.923-28.923c15.973,0,28.923,12.95,28.923,28.923
			C236.308,134.012,223.358,146.961,207.385,146.961z M329.42,157.536c-15.973,0-28.923-12.95-28.923-28.923
			c0-15.973,12.95-28.923,28.923-28.923c15.974,0,28.923,12.95,28.923,28.923S345.394,157.536,329.42,157.536z M387.266,265.231
			c-15.973,0-28.923-12.95-28.923-28.923s12.95-28.923,28.923-28.923c15.974,0,28.923,12.95,28.923,28.923
			S403.24,265.231,387.266,265.231z"/>
	</g>
</g>
<g>
</g>
<g>
</g>
<g>
</g>
<g>
</g>
<g>
</g>
<g>
</g>
<g>
</g>
<g>
</g>
<g>
</g>
<g>
</g>
<g>
</g>
<g>
</g>
<g>
</g>
<g>
</g>
<g>
</g>
</svg>
