<svg id="Layer_1" enable-background="new 0 0 512.033 512.033" height="512" viewBox="0 0 512.033 512.033" width="512" xmlns="http://www.w3.org/2000/svg"><g><path d="m165.842 209.357h180.35v93.319h-180.35z" transform="matrix(.707 -.707 .707 .707 -106.046 256.017)"/><path d="m117.923 237.194h62.231v251.602h-62.231z" transform="matrix(.707 -.707 .707 .707 -213.024 211.705)"/><path d="m331.879 23.237h62.231v251.602h-62.231z" transform="matrix(.707 -.707 .707 .707 .933 300.329)"/><path d="m69.815 326.984h42.186v188.283h-42.186z" transform="matrix(.707 -.707 .707 .707 -271.154 187.627)"/><path d="m400.032-3.233h42.186v188.283h-42.186z" transform="matrix(.707 -.707 .707 .707 59.065 324.41)"/><path d="m452.74-2.773h30.812v93.319h-30.812z" transform="matrix(.707 -.707 .707 .707 106.084 343.884)"/><path d="m28.481 421.487h30.812v93.319h-30.812z" transform="matrix(.707 -.707 .707 .707 -318.175 168.15)"/></g></svg>