<svg id="Capa_1" enable-background="new 0 0 511.399 511.399" height="512" viewBox="0 0 511.399 511.399" width="512" xmlns="http://www.w3.org/2000/svg"><path d="m255.7 0c-140.993 0-255.7 114.707-255.7 255.7s114.706 255.7 255.699 255.7 255.699-114.707 255.699-255.7-114.705-255.7-255.698-255.7zm224.727 234.85h-209.727v-60.775c56.65-4.539 108.7-34.555 140.996-81.334 38.213 36.596 63.609 86.461 68.731 142.109zm-209.727-204.339c43.879 2.894 84.368 18.38 117.884 42.875-26.604 40.044-70.19 66.045-117.884 70.589zm-30 113.462c-47.555-4.567-91.311-30.617-117.882-70.588 33.515-24.495 74.003-39.981 117.882-42.874zm-141.005-51.224c16.313 23.646 37.896 43.411 62.977 57.545 23.968 13.505 50.68 21.601 78.027 23.783v60.773h-209.727c5.122-55.644 30.515-105.506 68.723-142.101zm-69.494 172.101h210.499v60.472c-27.347 2.182-54.059 10.278-78.027 23.783-27.614 15.56-50.98 37.95-67.746 64.828-38.128-38.733-62.402-91.128-64.726-149.083zm210.584 216.044c-46.276-3.034-88.787-20.07-123.326-46.913.669-.726 1.276-1.528 1.808-2.405 26.111-43.115 71.702-71.374 121.433-76.15v123.916c0 .525.03 1.042.085 1.552zm29.915-125.47c50.815 4.842 96.98 34.033 122.897 78.622.027.046.057.088.084.134-34.493 26.727-76.906 43.688-123.067 46.714.055-.51.086-1.027.086-1.552zm145.785 58.497c-31.783-50.929-86.251-83.827-145.786-88.597v-60.474h210.498c-2.322 57.949-26.591 110.339-64.712 149.071z"/></svg>